# xmcd
#
# Track frame offsets:
#	150
#	5562
#	18378
#	36805
#	51979
#	67634
#	79283
#	97408
#	113873
#	135738
#	149960
#	163679
#	180036
#	204809
#
# Disc length: 2840 seconds
#
# Revision: 0
# Processed by: cddbd v1.4PL0 Copyright (c) Steve Scherf et al.
# Submitted via: EasyCDDAExtractor 4.5.2.1
#
DISCID=be0b160e
DTITLE=A.C:Cotton - halfway down
DYEAR=1900
DGENRE=Country
TTITLE0=the death of me
TTITLE1=a lot of water
TTITLE2=rusty chain
TTITLE3=alright for audrey
TTITLE4=punches
TTITLE5=great divide
TTITLE6=half way down
TTITLE7=devil revisited
TTITLE8=real damn shame
TTITLE9=lucky thirteen
TTITLE10=santiago
TTITLE11=ugly stick
TTITLE12=new independence morning
TTITLE13=all the way back to zero
EXTD=
EXTT0=
EXTT1=
EXTT2=
EXTT3=
EXTT4=
EXTT5=
EXTT6=
EXTT7=
EXTT8=
EXTT9=
EXTT10=
EXTT11=
EXTT12=
EXTT13=
PLAYORDER=
